<?xml version="1.0" encoding="UTF-8" standalone="no"?>
<!-- Created with Inkscape (http://www.inkscape.org/) -->

<svg
   xmlns:dc="http://purl.org/dc/elements/1.1/"
   xmlns:cc="http://creativecommons.org/ns#"
   xmlns:rdf="http://www.w3.org/1999/02/22-rdf-syntax-ns#"
   xmlns:svg="http://www.w3.org/2000/svg"
   xmlns="http://www.w3.org/2000/svg"
   xmlns:sodipodi="http://sodipodi.sourceforge.net/DTD/sodipodi-0.dtd"
   xmlns:inkscape="http://www.inkscape.org/namespaces/inkscape"
   width="320"
   height="32"
   viewBox="0 0 84.666665 8.4666669"
   version="1.1"
   id="svg8"
   inkscape:version="0.92.2 2405546, 2018-03-11"
   sodipodi:docname="snrwave.svg">
  <defs
     id="defs2">
    <style
       id="style3208"
       type="text/css">
*{stroke-linecap:butt;stroke-linejoin:round;}
  </style>
    <path
       style="stroke:#000000;stroke-width:0.8;"
       id="mfc8fc37e85"
       d="M 0 0  L 0 3.5  " />
    <path
       id="DejaVuSans-30"
       d="M 31.78125 66.40625  Q 24.171875 66.40625 20.328125 58.90625  Q 16.5 51.421875 16.5 36.375  Q 16.5 21.390625 20.328125 13.890625  Q 24.171875 6.390625 31.78125 6.390625  Q 39.453125 6.390625 43.28125 13.890625  Q 47.125 21.390625 47.125 36.375  Q 47.125 51.421875 43.28125 58.90625  Q 39.453125 66.40625 31.78125 66.40625  z M 31.78125 74.21875  Q 44.046875 74.21875 50.515625 64.515625  Q 56.984375 54.828125 56.984375 36.375  Q 56.984375 17.96875 50.515625 8.265625  Q 44.046875 -1.421875 31.78125 -1.421875  Q 19.53125 -1.421875 13.0625 8.265625  Q 6.59375 17.96875 6.59375 36.375  Q 6.59375 54.828125 13.0625 64.515625  Q 19.53125 74.21875 31.78125 74.21875  z " />
    <path
       id="DejaVuSans-32"
       d="M 19.1875 8.296875  L 53.609375 8.296875  L 53.609375 0  L 7.328125 0  L 7.328125 8.296875  Q 12.9375 14.109375 22.625 23.890625  Q 32.328125 33.6875 34.8125 36.53125  Q 39.546875 41.84375 41.421875 45.53125  Q 43.3125 49.21875 43.3125 52.78125  Q 43.3125 58.59375 39.234375 62.25  Q 35.15625 65.921875 28.609375 65.921875  Q 23.96875 65.921875 18.8125 64.3125  Q 13.671875 62.703125 7.8125 59.421875  L 7.8125 69.390625  Q 13.765625 71.78125 18.9375 73  Q 24.125 74.21875 28.421875 74.21875  Q 39.75 74.21875 46.484375 68.546875  Q 53.21875 62.890625 53.21875 53.421875  Q 53.21875 48.921875 51.53125 44.890625  Q 49.859375 40.875 45.40625 35.40625  Q 44.1875 33.984375 37.640625 27.21875  Q 31.109375 20.453125 19.1875 8.296875  z " />
    <path
       id="DejaVuSans-34"
       d="M 37.796875 64.3125  L 12.890625 25.390625  L 37.796875 25.390625  z M 35.203125 72.90625  L 47.609375 72.90625  L 47.609375 25.390625  L 58.015625 25.390625  L 58.015625 17.1875  L 47.609375 17.1875  L 47.609375 0  L 37.796875 0  L 37.796875 17.1875  L 4.890625 17.1875  L 4.890625 26.703125  z " />
    <path
       id="DejaVuSans-36"
       d="M 33.015625 40.375  Q 26.375 40.375 22.484375 35.828125  Q 18.609375 31.296875 18.609375 23.390625  Q 18.609375 15.53125 22.484375 10.953125  Q 26.375 6.390625 33.015625 6.390625  Q 39.65625 6.390625 43.53125 10.953125  Q 47.40625 15.53125 47.40625 23.390625  Q 47.40625 31.296875 43.53125 35.828125  Q 39.65625 40.375 33.015625 40.375  z M 52.59375 71.296875  L 52.59375 62.3125  Q 48.875 64.0625 45.09375 64.984375  Q 41.3125 65.921875 37.59375 65.921875  Q 27.828125 65.921875 22.671875 59.328125  Q 17.53125 52.734375 16.796875 39.40625  Q 19.671875 43.65625 24.015625 45.921875  Q 28.375 48.1875 33.59375 48.1875  Q 44.578125 48.1875 50.953125 41.515625  Q 57.328125 34.859375 57.328125 23.390625  Q 57.328125 12.15625 50.6875 5.359375  Q 44.046875 -1.421875 33.015625 -1.421875  Q 20.359375 -1.421875 13.671875 8.265625  Q 6.984375 17.96875 6.984375 36.375  Q 6.984375 53.65625 15.1875 63.9375  Q 23.390625 74.21875 37.203125 74.21875  Q 40.921875 74.21875 44.703125 73.484375  Q 48.484375 72.75 52.59375 71.296875  z " />
    <path
       id="DejaVuSans-38"
       d="M 31.78125 34.625  Q 24.75 34.625 20.71875 30.859375  Q 16.703125 27.09375 16.703125 20.515625  Q 16.703125 13.921875 20.71875 10.15625  Q 24.75 6.390625 31.78125 6.390625  Q 38.8125 6.390625 42.859375 10.171875  Q 46.921875 13.96875 46.921875 20.515625  Q 46.921875 27.09375 42.890625 30.859375  Q 38.875 34.625 31.78125 34.625  z M 21.921875 38.8125  Q 15.578125 40.375 12.03125 44.71875  Q 8.5 49.078125 8.5 55.328125  Q 8.5 64.0625 14.71875 69.140625  Q 20.953125 74.21875 31.78125 74.21875  Q 42.671875 74.21875 48.875 69.140625  Q 55.078125 64.0625 55.078125 55.328125  Q 55.078125 49.078125 51.53125 44.71875  Q 48 40.375 41.703125 38.8125  Q 48.828125 37.15625 52.796875 32.3125  Q 56.78125 27.484375 56.78125 20.515625  Q 56.78125 9.90625 50.3125 4.234375  Q 43.84375 -1.421875 31.78125 -1.421875  Q 19.734375 -1.421875 13.25 4.234375  Q 6.78125 9.90625 6.78125 20.515625  Q 6.78125 27.484375 10.78125 32.3125  Q 14.796875 37.15625 21.921875 38.8125  z M 18.3125 54.390625  Q 18.3125 48.734375 21.84375 45.5625  Q 25.390625 42.390625 31.78125 42.390625  Q 38.140625 42.390625 41.71875 45.5625  Q 45.3125 48.734375 45.3125 54.390625  Q 45.3125 60.0625 41.71875 63.234375  Q 38.140625 66.40625 31.78125 66.40625  Q 25.390625 66.40625 21.84375 63.234375  Q 18.3125 60.0625 18.3125 54.390625  z " />
    <path
       id="DejaVuSans-31"
       d="M 12.40625 8.296875  L 28.515625 8.296875  L 28.515625 63.921875  L 10.984375 60.40625  L 10.984375 69.390625  L 28.421875 72.90625  L 38.28125 72.90625  L 38.28125 8.296875  L 54.390625 8.296875  L 54.390625 0  L 12.40625 0  z " />
    <path
       style="stroke:#000000;stroke-width:0.8;"
       id="mf4255bb3bb"
       d="M 0 0  L -3.5 0  " />
    <path
       id="DejaVuSans-2e"
       d="M 10.6875 12.40625  L 21 12.40625  L 21 0  L 10.6875 0  z " />
    <path
       id="DejaVuSans-35"
       d="M 10.796875 72.90625  L 49.515625 72.90625  L 49.515625 64.59375  L 19.828125 64.59375  L 19.828125 46.734375  Q 21.96875 47.46875 24.109375 47.828125  Q 26.265625 48.1875 28.421875 48.1875  Q 40.625 48.1875 47.75 41.5  Q 54.890625 34.8125 54.890625 23.390625  Q 54.890625 11.625 47.5625 5.09375  Q 40.234375 -1.421875 26.90625 -1.421875  Q 22.3125 -1.421875 17.546875 -0.640625  Q 12.796875 0.140625 7.71875 1.703125  L 7.71875 11.625  Q 12.109375 9.234375 16.796875 8.0625  Q 21.484375 6.890625 26.703125 6.890625  Q 35.15625 6.890625 40.078125 11.328125  Q 45.015625 15.765625 45.015625 23.390625  Q 45.015625 31 40.078125 35.4375  Q 35.15625 39.890625 26.703125 39.890625  Q 22.75 39.890625 18.8125 39.015625  Q 14.890625 38.140625 10.796875 36.28125  z " />
    <clipPath
       id="p7bc5802258">
      <rect
         id="rect3390"
         y="8.64"
         x="90"
         width="558"
         height="55.44" />
    </clipPath>
  </defs>
  <sodipodi:namedview
     id="base"
     pagecolor="#ffffff"
     bordercolor="#666666"
     borderopacity="1.0"
     inkscape:pageopacity="0.0"
     inkscape:pageshadow="2"
     inkscape:zoom="1.4"
     inkscape:cx="228.99526"
     inkscape:cy="209.23284"
     inkscape:document-units="mm"
     inkscape:current-layer="axes_1"
     showgrid="false"
     units="px"
     inkscape:window-width="1680"
     inkscape:window-height="952"
     inkscape:window-x="0"
     inkscape:window-y="1"
     inkscape:window-maximized="1" />
  <metadata
     id="metadata5">
    <rdf:RDF>
      <cc:Work
         rdf:about="">
        <dc:format>image/svg+xml</dc:format>
        <dc:type
           rdf:resource="http://purl.org/dc/dcmitype/StillImage" />
        <dc:title></dc:title>
      </cc:Work>
    </rdf:RDF>
  </metadata>
  <g
     inkscape:label="Layer 1"
     inkscape:groupmode="layer"
     id="layer1"
     transform="translate(0,-288.53332)">
    <g
       style="stroke-linecap:butt;stroke-linejoin:round"
       id="axes_1"
       transform="matrix(0.35277778,0,0,0.35277778,-156.48214,249.07905)">
      <g
         style="stroke-linecap:butt;stroke-linejoin:round"
         id="matplotlib.axis_2" />
      <g
         style="stroke:#662d8f;stroke-width:2.16195679;stroke-linecap:butt;stroke-linejoin:round;stroke-opacity:1"
         id="line2d_10"
         transform="matrix(0.4694977,0,0,0.45569321,390.26998,107.03658)">
        <path
           inkscape:connector-curvature="0"
           clip-path="url(#p7bc5802258)"
           d="m 115.36364,40.874767 1.27136,7.749837 2.54272,-7.771711 1.27136,-5.634752 1.27136,-24.058141 1.27136,17.527597 1.27136,8.399933 1.27136,-17.548675 1.27136,2.932003 1.27136,20.535762 1.27136,-13.344371 1.27136,14.176864 1.27136,11.419579 1.27136,-3.205885 1.27136,-10.241059 1.27136,-6.916915 1.27136,22.713877 1.27136,-3.912634 1.27136,-21.350338 1.27136,-0.627206 1.27136,-11.141229 1.27136,-5.323437 1.27136,5.301538 1.27136,7.463103 1.27136,-9.305654 1.27136,20.278687 1.27136,-15.736803 1.27136,-4.840434 1.27136,9.781637 1.27136,5.998122 1.27136,14.508074 1.27136,9.908587 1.27136,0.352442 1.27136,-9.869586 1.27136,0.70362 1.27136,9.877745 1.27136,-24.110665 1.27136,10.128002 1.27136,1.140925 1.27136,-5.768544 1.27136,-10.129128 1.27137,-6.058557 1.27136,1.637626 1.27136,9.781498 1.27136,3.532372 1.27136,-4.166725 1.27136,-6.249455 1.27136,-12.0221 1.27136,15.136446 1.27136,20.36762 1.27136,-6.649449 1.27136,6.024308 2.54272,-4.705968 1.27136,10.562472 1.27136,-13.625126 1.27136,6.787546 1.27136,-17.216058 1.27136,8.054093 1.27136,-16.806405 1.27136,14.553424 1.27136,-17.803921 1.27136,-0.171159 1.27136,-8.990907 1.27136,8.32774 1.27136,6.139539 1.27136,8.444004 1.27136,-9.297276 1.27136,18.248642 1.27136,-15.167876 1.27136,8.118038 1.27136,21.086487 1.27136,-10.494328 1.27136,-4.455361 1.27136,1.421807 1.27136,11.837245 1.27136,-12.916612 1.27136,5.185768 1.27136,2.887439 1.27136,-2.323262 1.27136,-25.223319 1.27136,5.133523 1.27136,3.539752 1.27136,6.852965 1.27136,-21.346571 1.27136,1.137651 1.27136,18.522599 1.27137,-13.002727 1.27136,1.479438 1.27136,18.743061 1.27136,-2.406648 1.27136,-9.537951 1.27136,25.236197 1.27136,2.482927 1.27136,-11.097572 2.54272,-11.600809 1.27136,14.62427 1.27136,-2.351287 1.27136,-22.373106 1.27136,10.966375 1.27136,-17.153331 1.27136,13.793475 1.27136,-15.822045 1.27136,-5.237879 1.27136,23.703721 1.27136,-8.718612 1.27136,-0.28693 1.27136,-0.942907 1.27136,12.35578 1.27136,-11.809371 1.27136,3.627481 1.27136,4.868991 1.27136,12.923569 1.27136,7.14319 1.27136,-13.891744 1.27136,13.006156 1.27136,-15.376057 1.27136,4.942806 1.27136,-6.183939 1.27136,-15.930429 1.27136,12.152036 1.27136,-0.212855 1.27136,-5.590838 1.27136,-2.090381 1.27136,-0.889079 1.27136,-9.539108 1.27136,14.235708 1.27136,0.809398 1.27136,0.05948 1.27137,3.252577 1.27135,9.90395 1.27136,-8.508994 1.27137,12.656462 1.27136,8.285056 1.27136,-18.805418 1.27136,7.306658 1.27136,-0.357596 1.27136,-4.832369 1.27136,-10.912187 1.27136,6.792476 1.27136,-6.51328 1.27136,0.156872 1.27136,5.066226 1.27136,-17.026008 1.27136,4.389772 1.27136,0.335623 1.27136,4.550759 1.27136,-1.911906 1.27136,5.383609 1.27136,1.813786 1.27136,5.150795 1.27136,-1.002531 1.27136,9.462794 1.27136,-4.895561 1.27136,5.959244 1.27136,7.135811 1.27136,-13.523874 1.27136,-0.90154 1.27136,3.44135 1.27136,-9.712891 1.27136,-12.231093 1.27136,2.139566 2.54272,10.156528 1.27136,-9.670685 1.27136,9.966227 1.27136,-0.651914 1.27136,-1.564232 1.27136,9.648219 1.27136,-3.445874 1.27136,1.060524 1.27136,-0.663165 1.27136,1.744083 1.27136,6.828367 1.27137,-9.615391 1.27135,7.270998 1.27136,4.471151 1.27137,-17.958035 1.27136,0.303206 1.27136,3.930725 1.27136,-5.084888 1.27136,3.914274 1.27136,-12.686875 2.54272,11.385129 1.27136,-3.246339 1.27136,-8.601905 1.27136,7.738654 1.27136,11.102181 1.27136,-8.272268 1.27136,3.625011 1.27136,6.89985 1.27136,10.329368 1.27136,-12.950936 1.27136,15.44569 1.27136,-10.215264 1.27136,-8.200742 1.27136,-4.901218 1.27136,2.856112 1.27136,1.332513 1.27136,-12.24045 1.27136,-2.374757 1.27136,12.020666 1.27136,-13.760824 1.27136,11.700926 1.27136,0.314592 1.27136,2.981035 1.27136,-3.159041 1.27136,12.59698 1.27136,-0.695008 1.27136,6.449076 1.27136,-5.04123 1.27136,1.320824 1.27136,3.561804 1.27136,-7.575628 1.27136,-4.072244 1.27136,10.285895 1.27136,-16.189097 1.27136,8.202228 1.27136,-6.814827 1.27137,-2.700879 1.27135,-3.055411 1.27136,-0.480565 1.27137,-5.92509 1.27136,-1.286796 1.27136,11.339425 1.27136,-0.280404 2.54272,6.294197 1.27136,4.504488 1.27136,0.170197 1.27136,-2.266499 1.27136,7.448808 1.27136,-3.514425 1.27136,9.002656 1.27136,-7.960024 1.27136,-2.35482 1.27136,2.733649 1.27136,-9.63497 1.27136,-6.319921 1.27136,-2.944689 1.27136,-3.371124 1.27136,3.568606 1.27136,-5.963869 1.27136,1.014827 1.27136,9.296698 1.27136,-4.391829 1.27136,9.518266 1.27136,4.579862 1.27136,0.354016 1.27136,2.676152 1.27136,3.856119 1.27136,-2.142015 1.27136,6.333918 1.27136,-3.070202 1.27136,0.766998 1.27136,-1.082 1.27136,-7.145443 2.54272,-11.955027 1.27136,-3.566284 1.27136,-0.244388 1.27136,-0.58155 1.27136,-1.540513 1.27136,4.974853 1.27137,-5.906713 1.27135,12.75672 1.27136,-5.979378 1.27136,8.807405 1.27137,-1.985937 1.27136,6.247396 1.27136,-1.994469 1.27136,8.225192 2.54272,-5.649415 1.27136,-1.205655 2.54272,-1.540208 1.27136,-3.751385 1.27136,-4.451742 1.27136,-3.149864 1.27136,-5.686047 1.27136,4.59078 1.27136,0.329995 1.27136,-0.484812 1.27136,-1.918746 1.27136,5.337136 1.27136,0.562878 2.54272,3.892652 1.27136,9.821487 1.27136,-3.491728 1.27136,9.726471 1.27136,-7.250251 1.27136,4.315287 1.27136,-3.406417 1.27136,0.894471 1.27136,-5.347857 1.27136,-0.205498 1.27136,-8.891932 1.27136,-5.83088 2.54272,3.367905 1.27136,-1.329941 1.27136,-2.024139 1.27136,-1.067935 1.27136,2.958577 1.27136,7.555137 1.27136,-0.904694 1.27136,5.138757 1.27136,6.261999 2.54272,4.443186 1.27136,-0.209283 1.27137,0.139505 2.54272,-8.955034 1.27136,1.866868 1.27136,-3.81243 1.27136,-9.425844 1.27136,-3.033689 1.27136,0.01291 1.27136,-2.36706 1.27136,-0.455852 1.27136,0.06854 1.27136,0.419912 1.27136,5.252956 1.27136,0.708576 1.27136,6.95588 1.27136,3.592749 2.54272,3.262234 1.27136,1.92959 1.27136,0.27548 1.27136,-1.111406 1.27136,-2.158955 1.27136,0.946038 1.27136,-1.646727 1.27136,-3.843954 1.27136,-7.730036 1.27136,-0.787086 1.27136,-3.398929 1.27136,-0.471207 1.27136,-2.694535 1.27136,3.413057 1.27136,-0.937402 1.27136,1.649135 1.27136,3.029252 1.27136,6.599161 1.27136,3.499229 1.27136,3.15239 1.27136,1.28418 1.27136,3.681973 1.27136,-1.608464 1.27136,1.693551 1.27136,-1.88207 1.27136,-4.895945 1.27137,-2.446405 1.27135,-5.044936 1.27136,-1.859119 1.27137,-4.028591 1.27136,-0.772738 1.27136,-2.440486 1.27136,0.08598 1.27136,-0.539766 1.27136,2.982343 1.27136,0.789665 1.27136,3.386997 1.27136,5.078922 1.27136,2.027462 2.54272,6.532921 1.27136,1.897228 1.27136,0.291233 1.27136,-1.354364 1.27136,-0.506657 2.54272,-7.10204 1.27136,-2.408253 2.54272,-7.102942 1.27136,-2.352626 1.27136,-1.49361 1.27136,-0.521731 1.27136,0.635522 1.27136,1.382482 1.27136,2.196536 2.54272,6.687348 1.27136,3.752668 2.54272,5.766936 1.27136,1.696524 1.27136,0.190491 1.27136,-0.530404 1.27136,-1.35748 1.27136,-2.645304 1.27136,-3.173926 v 0"
           style="fill:none;stroke:#662d8f;stroke-width:3.24293494;stroke-linecap:square;stroke-linejoin:round;stroke-opacity:1"
           id="path3373" />
      </g>
    </g>
  </g>
</svg>
